<?xml version="1.0" ?><svg height="16px" version="1.1" viewBox="0 0 18 16" width="18px" xmlns="http://www.w3.org/2000/svg" xmlns:sketch="http://www.bohemiancoding.com/sketch/ns" xmlns:xlink="http://www.w3.org/1999/xlink"><title/><desc/><defs/><g fill="none" fill-rule="evenodd" id="Page-1" stroke="none" stroke-width="1"><g fill="#000000" id="Core" transform="translate(-465.000000, -172.000000)"><g id="drive-site" transform="translate(465.000000, 172.000000)"><path d="M16,0 L2,0 C0.9,0 0,0.9 0,2 L0,14 C0,15.1 0.9,16 2,16 L16,16 C17.1,16 18,15.1 18,14 L18,2 C18,0.9 17.1,0 16,0 L16,0 Z M11,14 L2,14 L2,10 L11,10 L11,14 L11,14 Z M11,9 L2,9 L2,5 L11,5 L11,9 L11,9 Z M16,14 L12,14 L12,5 L16,5 L16,14 L16,14 Z" id="Shape"/></g></g></g></svg>